<svg width="20" height="20" viewBox="0 0 20 20" fill="none" xmlns="http://www.w3.org/2000/svg">
<path d="M9.4375 1.75V1C9.4375 0.850816 9.49676 0.707742 9.60225 0.602252C9.70774 0.496763 9.85082 0.4375 10 0.4375C10.1492 0.4375 10.2923 0.496763 10.3977 0.602252C10.5032 0.707742 10.5625 0.850816 10.5625 1V1.75C10.5625 1.89918 10.5032 2.04226 10.3977 2.14775C10.2923 2.25324 10.1492 2.3125 10 2.3125C9.85082 2.3125 9.70774 2.25324 9.60225 2.14775C9.49676 2.04226 9.4375 1.89918 9.4375 1.75ZM15.8125 10C15.8125 11.1496 15.4716 12.2734 14.8329 13.2293C14.1942 14.1851 13.2864 14.9301 12.2243 15.3701C11.1623 15.81 9.99355 15.9251 8.86604 15.7008C7.73852 15.4765 6.70283 14.923 5.88994 14.1101C5.07705 13.2972 4.52346 12.2615 4.29919 11.134C4.07491 10.0064 4.19002 8.83775 4.62995 7.77565C5.06988 6.71356 5.81489 5.80577 6.77075 5.16708C7.72661 4.5284 8.8504 4.1875 10 4.1875C11.541 4.18924 13.0185 4.80218 14.1081 5.89186C15.1978 6.98154 15.8108 8.45896 15.8125 10ZM14.6875 10C14.6875 9.0729 14.4126 8.16662 13.8975 7.39576C13.3824 6.62491 12.6504 6.0241 11.7938 5.66931C10.9373 5.31453 9.9948 5.2217 9.08551 5.40257C8.17623 5.58344 7.341 6.02988 6.68544 6.68544C6.02988 7.341 5.58344 8.17623 5.40257 9.08551C5.2217 9.9948 5.31453 10.9373 5.66931 11.7938C6.0241 12.6504 6.62491 13.3824 7.39576 13.8975C8.16662 14.4126 9.0729 14.6875 10 14.6875C11.2427 14.686 12.4342 14.1917 13.3129 13.3129C14.1917 12.4342 14.686 11.2427 14.6875 10ZM3.6025 4.3975C3.654 4.45276 3.7161 4.49709 3.7851 4.52784C3.8541 4.55858 3.92858 4.57511 4.00411 4.57644C4.07964 4.57778 4.15466 4.56388 4.2247 4.53559C4.29474 4.5073 4.35836 4.46519 4.41178 4.41178C4.46519 4.35836 4.5073 4.29474 4.53559 4.2247C4.56388 4.15466 4.57778 4.07964 4.57644 4.00411C4.57511 3.92858 4.55858 3.8541 4.52784 3.7851C4.49709 3.7161 4.45276 3.654 4.3975 3.6025L3.6475 2.8525C3.54087 2.75314 3.39983 2.69905 3.25411 2.70162C3.10838 2.70419 2.96934 2.76322 2.86628 2.86628C2.76322 2.96934 2.70419 3.10838 2.70162 3.25411C2.69905 3.39983 2.75314 3.54087 2.8525 3.6475L3.6025 4.3975ZM3.6025 15.6025L2.8525 16.3525C2.79723 16.404 2.75291 16.4661 2.72216 16.5351C2.69142 16.6041 2.67489 16.6786 2.67356 16.7541C2.67222 16.8296 2.68612 16.9047 2.71441 16.9747C2.7427 17.0447 2.78481 17.1084 2.83822 17.1618C2.89164 17.2152 2.95526 17.2573 3.0253 17.2856C3.09534 17.3139 3.17036 17.3278 3.24589 17.3264C3.32142 17.3251 3.3959 17.3086 3.4649 17.2778C3.5339 17.2471 3.596 17.2028 3.6475 17.1475L4.3975 16.3975C4.45276 16.346 4.49709 16.2839 4.52784 16.2149C4.55858 16.1459 4.57511 16.0714 4.57644 15.9959C4.57778 15.9204 4.56388 15.8453 4.53559 15.7753C4.5073 15.7053 4.46519 15.6416 4.41178 15.5882C4.35836 15.5348 4.29474 15.4927 4.2247 15.4644C4.15466 15.4361 4.07964 15.4222 4.00411 15.4236C3.92858 15.4249 3.8541 15.4414 3.7851 15.4722C3.7161 15.5029 3.654 15.5472 3.6025 15.6025ZM16.3525 2.8525L15.6025 3.6025C15.5472 3.654 15.5029 3.7161 15.4722 3.7851C15.4414 3.8541 15.4249 3.92858 15.4236 4.00411C15.4222 4.07964 15.4361 4.15466 15.4644 4.2247C15.4927 4.29474 15.5348 4.35836 15.5882 4.41178C15.6416 4.46519 15.7053 4.5073 15.7753 4.53559C15.8453 4.56388 15.9204 4.57778 15.9959 4.57644C16.0714 4.57511 16.1459 4.55858 16.2149 4.52784C16.2839 4.49709 16.346 4.45276 16.3975 4.3975L17.1475 3.6475C17.2469 3.54087 17.301 3.39983 17.2984 3.25411C17.2958 3.10838 17.2368 2.96934 17.1337 2.86628C17.0307 2.76322 16.8916 2.70419 16.7459 2.70162C16.6002 2.69905 16.4591 2.75314 16.3525 2.8525ZM16.3975 15.6025C16.2909 15.5031 16.1498 15.449 16.0041 15.4516C15.8584 15.4542 15.7193 15.5132 15.6163 15.6163C15.5132 15.7193 15.4542 15.8584 15.4516 16.0041C15.449 16.1498 15.5031 16.2909 15.6025 16.3975L16.3525 17.1475C16.4591 17.2469 16.6002 17.301 16.7459 17.2984C16.8916 17.2958 17.0307 17.2368 17.1337 17.1337C17.2368 17.0307 17.2958 16.8916 17.2984 16.7459C17.301 16.6002 17.2469 16.4591 17.1475 16.3525L16.3975 15.6025ZM1.75 9.4375H1C0.850816 9.4375 0.707742 9.49676 0.602252 9.60225C0.496763 9.70774 0.4375 9.85082 0.4375 10C0.4375 10.1492 0.496763 10.2923 0.602252 10.3977C0.707742 10.5032 0.850816 10.5625 1 10.5625H1.75C1.89918 10.5625 2.04226 10.5032 2.14775 10.3977C2.25324 10.2923 2.3125 10.1492 2.3125 10C2.3125 9.85082 2.25324 9.70774 2.14775 9.60225C2.04226 9.49676 1.89918 9.4375 1.75 9.4375ZM10 17.6875C9.85082 17.6875 9.70774 17.7468 9.60225 17.8523C9.49676 17.9577 9.4375 18.1008 9.4375 18.25V19C9.4375 19.1492 9.49676 19.2923 9.60225 19.3977C9.70774 19.5032 9.85082 19.5625 10 19.5625C10.1492 19.5625 10.2923 19.5032 10.3977 19.3977C10.5032 19.2923 10.5625 19.1492 10.5625 19V18.25C10.5625 18.1008 10.5032 17.9577 10.3977 17.8523C10.2923 17.7468 10.1492 17.6875 10 17.6875ZM19 9.4375H18.25C18.1008 9.4375 17.9577 9.49676 17.8523 9.60225C17.7468 9.70774 17.6875 9.85082 17.6875 10C17.6875 10.1492 17.7468 10.2923 17.8523 10.3977C17.9577 10.5032 18.1008 10.5625 18.25 10.5625H19C19.1492 10.5625 19.2923 10.5032 19.3977 10.3977C19.5032 10.2923 19.5625 10.1492 19.5625 10C19.5625 9.85082 19.5032 9.70774 19.3977 9.60225C19.2923 9.49676 19.1492 9.4375 19 9.4375Z" fill="#3B3B54"/>
</svg>
