<svg width="22" height="18" viewBox="0 0 22 18" fill="none" xmlns="http://www.w3.org/2000/svg">
<path d="M16.0625 14.25C16.0625 14.9959 15.7662 15.7113 15.2387 16.2387C14.7113 16.7662 13.9959 17.0625 13.25 17.0625C12.0406 17.0625 10.8725 16.2769 10.4722 15.195C10.4205 15.055 10.4265 14.9002 10.4889 14.7647C10.5513 14.6291 10.665 14.5239 10.805 14.4722C10.945 14.4205 11.0998 14.4265 11.2353 14.4889C11.3709 14.5513 11.4761 14.665 11.5278 14.805C11.7622 15.4397 12.5188 15.9375 13.25 15.9375C13.6976 15.9375 14.1268 15.7597 14.4432 15.4432C14.7597 15.1268 14.9375 14.6976 14.9375 14.25C14.9375 13.8024 14.7597 13.3732 14.4432 13.0568C14.1268 12.7403 13.6976 12.5625 13.25 12.5625H2.75C2.60082 12.5625 2.45774 12.5032 2.35225 12.3977C2.24676 12.2923 2.1875 12.1492 2.1875 12C2.1875 11.8508 2.24676 11.7077 2.35225 11.6023C2.45774 11.4968 2.60082 11.4375 2.75 11.4375H13.25C13.9959 11.4375 14.7113 11.7338 15.2387 12.2613C15.7662 12.7887 16.0625 13.5041 16.0625 14.25ZM13.0625 3.75C13.0625 3.00408 12.7662 2.28871 12.2387 1.76126C11.7113 1.23382 10.9959 0.9375 10.25 0.9375C9.04062 0.9375 7.8725 1.72312 7.47219 2.805C7.42047 2.94498 7.42648 3.09978 7.48889 3.23533C7.55131 3.37089 7.66502 3.47609 7.805 3.52781C7.94498 3.57953 8.09978 3.57352 8.23533 3.51111C8.37089 3.44869 8.4761 3.33498 8.52781 3.195C8.76219 2.56031 9.51875 2.0625 10.25 2.0625C10.6976 2.0625 11.1268 2.24029 11.4432 2.55676C11.7597 2.87323 11.9375 3.30245 11.9375 3.75C11.9375 4.19755 11.7597 4.62678 11.4432 4.94324C11.1268 5.25971 10.6976 5.4375 10.25 5.4375H1.25C1.10082 5.4375 0.957742 5.49676 0.852252 5.60225C0.746763 5.70774 0.6875 5.85082 0.6875 6C0.6875 6.14918 0.746763 6.29226 0.852252 6.39775C0.957742 6.50324 1.10082 6.5625 1.25 6.5625H10.25C10.9959 6.5625 11.7113 6.26618 12.2387 5.73874C12.7662 5.21129 13.0625 4.49592 13.0625 3.75ZM18.5 3.9375C17.2906 3.9375 16.1225 4.72312 15.7222 5.805C15.6966 5.87431 15.6849 5.94799 15.6877 6.02183C15.6906 6.09567 15.708 6.16821 15.7389 6.23533C15.7698 6.30245 15.8136 6.36283 15.8679 6.41301C15.9221 6.4632 15.9857 6.5022 16.055 6.52781C16.1243 6.55342 16.198 6.56512 16.2718 6.56226C16.3457 6.55939 16.4182 6.54201 16.4853 6.51111C16.5525 6.4802 16.6128 6.43638 16.663 6.38214C16.7132 6.3279 16.7522 6.26431 16.7778 6.195C17.0122 5.56031 17.7687 5.0625 18.5 5.0625C18.9476 5.0625 19.3768 5.24029 19.6932 5.55676C20.0097 5.87323 20.1875 6.30245 20.1875 6.75C20.1875 7.19755 20.0097 7.62677 19.6932 7.94324C19.3768 8.25971 18.9476 8.4375 18.5 8.4375H2C1.85082 8.4375 1.70774 8.49676 1.60225 8.60225C1.49676 8.70774 1.4375 8.85082 1.4375 9C1.4375 9.14918 1.49676 9.29226 1.60225 9.39775C1.70774 9.50324 1.85082 9.5625 2 9.5625H18.5C19.2459 9.5625 19.9613 9.26618 20.4887 8.73874C21.0162 8.21129 21.3125 7.49592 21.3125 6.75C21.3125 6.00408 21.0162 5.28871 20.4887 4.76126C19.9613 4.23382 19.2459 3.9375 18.5 3.9375Z" fill="#3B3B54"/>
</svg>
